<?xml version="1.0" encoding="UTF-8"?> <svg xmlns="http://www.w3.org/2000/svg" xmlns:xlink="http://www.w3.org/1999/xlink" id="Layer_1" data-name="Layer 1" viewBox="0 0 855.4097945852 116.2582919817"><defs><style> .cls-1 { fill: none; } .cls-2 { fill: url(#linear-gradient-2); } .cls-3 { fill: #0c92de; } .cls-4 { fill: url(#linear-gradient); } .cls-5 { fill: #f0004c; } .cls-6 { clip-path: url(#clippath-1); } .cls-7 { clip-path: url(#clippath); } </style><clipPath id="clippath"><path class="cls-1" d="M17.532198732,33.5040144975c-2.6951852128-.3376600379-5.3398950437-.7275333552-7.8923585371-1.2287981004C6.2414878792,31.6086007477,3.2330103333,30.7496511362.0000066395,29.5417410034c.8711270318,17.7810849077,12.3306673849,29.8306602371,30.2344599727,30.9724339919,2.3035690184,21.2246914433,20.5145603014,18.2353583653,35.5499895939,18.2353583653-1.1487386239-8.7321564187-4.6576183983-22.3742965261-15.7264120243-22.0409920212.0409028367,1.4376644971.0800627963,2.8753289942.1200958543,4.31386327,6.1509719698-.1853624536,8.1943344105,8.2996373875,9.3744049857,13.0077261881-5.724548029-.0191450904-12.785813111-.6431183457-17.8193750885-3.32438046-7.57993868-4.037120938-7.20485824-10.6554196853-4.8856232459-17.8750741222-12.937235937,4.0484347005-28.5391990639-.6674854281-29.5669720548-15.8177819435,6.1962278497,1.9632963246,13.3636623677,2.410608233,20.6851307076,2.8657547891,28.1667304497,1.7535667887,42.475492846,7.3414832091,45.3255849792,38.8708842997h5.764581087c-1.6639331071-34.3925465436-24.6561177575-41.2945524921-54.8557650042-44.4918722287-2.8970850806-3.1146509241-4.4452712269-6.9672791872-4.7254943336-11.1871532427,6.4860226716,2.0616410722,13.9206269765,2.4776210292,21.4753254757,2.8996960766,38.420966375,2.14083077,47.0504324724,16.2459520812,49.2243281116,52.7793293949h5.9569084096c-.3507133577-40.7697838037-19.3518985789-54.2387516382-58.3515831593-58.3559320527-8.9062051098-.9407486454-17.2598003137-1.7579223217-25.7230473882-4.9221771892.3263462754,6.6652999941,1.6360827603,12.4368393107,5.4756552138,18.0325903787"></path></clipPath><linearGradient id="linear-gradient" x1="-232.1975392591" y1="569.1296406455" x2="-231.3272825247" y2="569.1296406455" gradientTransform="translate(44147.2498210822 18020.4917647798) rotate(90) scale(77.4853057861)" gradientUnits="userSpaceOnUse"><stop offset="0" stop-color="#3ac3df"></stop><stop offset=".0067582399" stop-color="#3ac3df"></stop><stop offset="1" stop-color="#0083c8"></stop></linearGradient><clipPath id="clippath-1"><path class="cls-1" d="M60.055555964,0c-15.6689734332,0-30.6225970524,6.7296968147-41.027386025,18.4633698525l5.7054029386,5.0579290599c8.9584233688-10.1028047998,21.8330003828-15.8969782809,35.3219830864-15.8969782809,26.0180617122,0,47.1870607613,21.1672528522,47.1870607613,47.1861909826,0,26.018065032-21.1689990491,47.1870607613-47.1870607613,47.1870607613-26.0180683518,0-47.1853228638-21.1689957293-47.1853228638-47.1870607613,0-1.7379041328.0948581633-3.4853758312.281963494-5.195433767l-6.9916425348-3.788224803c-.2184343773,1.9841842922-.9155101245,6.9698818838-.9155101245,8.98365857,0,30.2231462102,24.5882322778,54.8105099542,54.8105120291,54.8105099542,30.2231428905,0,54.8105049746-24.587363744,54.8105049746-54.8105099542C114.8660609386,24.5882385024,90.2786988544,0,60.055555964,0Z"></path></clipPath><linearGradient id="linear-gradient-2" y1="573.7917974475" x2="-231.3272825247" y2="573.7917974475" gradientTransform="translate(-44400.377340111 18020.4917647798) rotate(90) scale(77.4853057861 -77.4853057861)" xlink:href="#linear-gradient"></linearGradient></defs><g><g class="cls-7"><rect class="cls-4" y="15.4714241187" width="96.1311674261" height="66.2674456396"></rect></g><g class="cls-6"><rect class="cls-2" x="5.2450377103" y=".0000132791" width="109.6210099492" height="109.6210099492"></rect></g><g><path class="cls-3" d="M800.7889115645,48.7237613805c10.3003574341,0,18.1578982656,8.0698929825,18.1578982656,18.901104236,0,10.7250451373-7.8575408315,18.901104236-18.1578982656,18.901104236s-18.1578982656-8.1760590987-18.1578982656-18.901104236c0-10.8312112535,7.8575408315-18.901104236,18.1578982656-18.901104236M776.6845422335,67.6248656166c0,14.1225268443,10.0879986436,24.7413959061,23.5735254708,24.7413959061,7.9637202268,0,14.6533939428-3.7168631134,18.9011009163-9.5571547834l.1061793953,9.3448159115c0,10.4065301898-8.1760790173,18.2640776609-19.1134597068,18.2640776609-6.5834943207,0-12.3176065955-2.9736671023-15.2904171981-7.5390358433l-5.8402916701,1.9110830452c3.9283189276,6.7958331927,12.1053009212,11.4682444682,21.3430676588,11.4682444682,14.0163175711,0,24.635213191-10.4065301898,24.635213191-24.1043693309v-48.4210841734h-5.8402916701v8.7069162379c-4.2477069735-5.8402916701-11.0435600848-9.5562850048-18.9011009163-9.5562850048-13.4855268273,0-23.5735254708,10.6188690618-23.5735254708,24.7413959061M726.0338899454,91.5168927558h5.8402916701v-27.7150663281c0-8.7069162379,7.3275468315-15.2904105586,16.7776723596-15.2904105586,8.6007434822,0,15.0789082677,6.477321565,15.0789082677,15.0780683669v27.9274085198h5.8402916701v-29.4138071816c0-10.9373840093-8.2831082727-19.2196158637-19.4327946365-19.2196158637-11.1488896199,0-16.2459786393,6.3711488092-18.2640776609,10.0871421439v-9.2377733771h-5.8402916701v47.7840542785ZM706.9204302386,27.9107010009c0,2.5489827188,1.8057933472,4.3538930083,4.3538863688,4.3538930083s4.3538863688-1.8049102895,4.3538863688-4.3538930083c0-2.4419401844-1.8057933472-4.3530232296-4.3538863688-4.3530232296s-4.3538863688,1.9110830452-4.3538863688,4.3530232296M708.4076854,91.5168927558h5.8402916701v-47.7840542785h-5.8402916701v47.7840542785ZM675.2787579821,91.5168927558h5.8402916701v-27.3965513807c0-8.6007468019,7.3266969714-15.1842411226,16.7776723596-15.1842411226,1.0616877202,0,1.9110697661.1061727557,2.8666312074.424691023v-6.477321565c-8.3883846916,0-15.3965965934,2.3357674286-19.6443035669,10.0871421439v-9.2377733771h-5.8402916701v47.7840542785ZM623.9910293223,67.6248656166c0-10.7250451373,7.9646232031-18.901104236,18.5826158467-18.901104236,10.7250218989,0,18.6887421257,8.1760590987,18.6887421257,18.901104236s-7.9637202268,18.901104236-18.6887421257,18.901104236c-10.6179926436,0-18.5826158467-8.1760590987-18.5826158467-18.901104236M642.6798245643,42.8834697105c-14.1225500827,0-24.8475719816,10.6188690618-24.8475719816,24.7413959061s10.7250218989,24.7413959061,24.8475719816,24.7413959061c14.0172205475,0,24.7413925863-10.6188690618,24.7413925863-24.7413959061s-10.7241720389-24.7413959061-24.7413925863-24.7413959061M593.7287331119,48.9361002525v29.0952922342c0,7.6452085991,5.5217534843,13.4855002692,12.8484504556,13.4855002692h7.2205175761v-5.6279527981h-6.9019793903c-4.1406777181,0-7.3266969714-3.7168631134-7.3266969714-8.4954405051v-28.4573992001h14.2286763617v-5.2032617752h-14.2286763617v-10.1941846784h-5.8402916701v10.1941846784h-8.1760790173v5.2032617752h8.1760790173ZM535.1143074807,91.5168927558h5.8402916701v-27.7150663281c0-8.7069162379,7.3266969714-15.2904105586,16.7776723596-15.2904105586,8.6007965984,0,15.0781115239,6.477321565,15.0781115239,15.0780683669v27.9274085198h5.8402916701v-29.4138071816c0-10.9373840093-8.2822584126-19.2196158637-19.4319978926-19.2196158637-11.1496863638,0-16.2468284994,6.3711488092-18.2640776609,10.0871421439v-9.2377733771h-5.8402916701v47.7840542785ZM502.7294325736,48.4052497529c9.6624843186,0,17.2015400806,6.7958331927,18.4764364514,16.2459487615h-36.634334717c1.2740465108-9.4501155688,8.8131022727-16.2459487615,18.1578982656-16.2459487615M478.5189369636,67.6248656166c0,14.1225268443,10.7241720388,24.7413959061,25.1660570512,24.7413959061,9.3439461328,0,17.0962105454-4.460065764,21.3430676588-11.5744105844l-5.6279859958-1.9110830452c-3.3974750675,4.8838803688-9.025407947,7.9637135872-15.715081663,7.9637135872-10.6188425037,0-18.4764364514-7.4328564481-19.2196391021-17.4147055742h42.6869851776c.1061793953-.6370265751.1061793953-1.2740531503.1061793953-1.9110830452,0-14.0163540886-10.5127162246-24.6352231504-24.4229075168-24.6352231504-13.8048617569,0-24.3166750052,10.6188690618-24.3166750052,24.7413959061M395.4807805137,19.8408080183v71.6760847375h6.4773149255v-59.4646376186l28.6706144902,50.0136489514h4.1406777181l28.7767673274-50.1198217071v59.5708103743h6.3711355302V19.8408080183h-6.3711355302l-30.7940430469,53.6243492683-30.7940164888-53.6243492683h-6.4773149255Z"></path><path class="cls-5" d="M322.0376507376,91.500273144c.1026737224,0,.182746478-.0800594765.182746478-.1827531175v-45.9452027015l34.3142166652,38.4148712846,6.8828575382,7.6878476734c.0322150091.0365506235.0835518703.0617874845.1348887315.0617874845h.0034791148l2.0102909319-.0365506235h2.5994564409c.1018238623,0,.1827730361-.0800594765.1827730361-.1827531175V20.0391432541c0-.1026870015-.0809491738-.1836228962-.1827730361-.1836228962h-1.3915396685c-.0330648692-.025236861-.0696088532-.0400297382-.1096319519-.0400297382h-8.7861192148c-.0330648692,0-.0661297384.0147928772-.095742051.0365506235h-1.1121747213c-.1027002805,0-.1836228962.0809358947-.1836228962.1827531175v45.9086487583l-34.3142166652-38.3739684479-6.845437136-7.6512970499c-.0330914273-.0408995169-.0844282885-.0626572632-.1357651497-.0626572632h-4.6123766274c-.1026737224,0-.1836228962.0809358947-.1836228962.1836228962v71.2783767724c0,.102693641.0809491738.1827531175.1836228962.1827531175h11.4586901817ZM258.2652117417,31.6692595118h20.3187737826c7.6913135091,0,13.9484615544,6.271934283,13.9484615544,13.9850188174,0,7.6913334277-6.2571480453,13.9484748335-13.9484615544,13.9484748335h-20.3187737826v-27.9334936509ZM258.0720279195,91.500273144c.1018238623,0,.182746478-.0800594765.182746478-.1827531175v-19.8792732836h17.7184409235c1.032978384,0,2.0685860226.4212019489,2.837895313,1.1530875173l14.156464812,14.1904094192c.0078346477.033068189.0261066397.0617874845.0478843046.083541911,2.9832213888,2.9841144058,6.9594246209,4.6315084388,11.1836542093,4.6315084388.1027002805,0,.1836228962-.0809358947.1836228962-.1827531175v-11.4595433615c0-.098338108-.0809226157-.1827531175-.1836228962-.1827531175-1.0286494091,0-2.0642570478-.4212052687-2.8370454529-1.1530908371l-10.2611841955-10.3351685002c8.2004328206-4.5392587816,13.2818525445-13.1460940343,13.2818525445-22.5213721185,0-14.2339149524-11.5796358961-25.8100717337-25.8100650942-25.8100717337h-31.9601838841c-.1018238623,0-.182746478.0809358947-.182746478.1827531175v71.2792465511c0,.1018172228.0809226157.1827531175.182746478.1827531175h11.4595400418v.0034791148ZM240.2430786258,91.500273144c.1018238623,0,.182746478-.0800594765.182746478-.1827531175v-11.4630224763c0-.1018205425-.0809226157-.1827531175-.182746478-.1827531175h-39.0623451633v-18.0813245434h28.0788330057c.1027002805,0,.1836228962-.0800627963.1836228962-.1827531175v-4.6132298073c0-.0365506235-.0147928772-.0696221322-.036543984-.0948589933v-2.0285695634c.0217511067-.0287159758.036543984-.0696154927.036543984-.1096518705v-4.6167122418c0-.1018172228-.0809226157-.1827531175-.1836228962-.1827531175h-28.0788330057v-18.0813245434h39.0623451633c.1018238623,0,.182746478-.0809292552.182746478-.1827531175v-11.4586702631c0-.1026870015-.0809226157-.1836228962-.182746478-.1836228962h-50.7411889461c-.0983314685,0-.182746478.0809358947-.182746478.1836228962v71.2783767724c0,.102693641.0800594765.1827531175.182746478.1827531175h50.7411889461ZM148.4170766828,31.6805666347v59.6369533918c0,.102693641.0809226157.1827531175.182746478.1827531175h11.4586769026c.1026870015,0,.1836228962-.0800594765.1836228962-.1827531175V31.6805666347h22.8807832632c.1027002805,0,.182759757-.0809292552.182759757-.1827531175v-11.4586702631c0-.1026870015-.0800594765-.1836228962-.182759757-.1836228962h-57.5866260821c-.1026870015,0-.182759757.0809358947-.182759757.1836228962v11.4586702631c0,.1018238623.0800727556.1827531175.182759757.1827531175h22.8807965422Z"></path></g></g><path class="cls-3" d="M834.0144199227,82.377278166h-3.4213929602v-2.9376739059h10.0237337366v2.9376739059h-3.4228073434v9.1595456015h-3.179533433v-9.1595456015ZM841.6181440045,91.5368237675v-12.0972195074h3.1455882362l3.7679168441,6.67023117,3.7665024609-6.67023117h3.1116430394v12.0972195074h-3.1116430394v-6.2558168925l-2.7297595755,5.0465192567h-2.1088453508l-2.6958143787-5.0125740599v6.2218716957h-3.1455882362Z"></path></svg> 